<svg width="744" height="594" viewBox="0 0 744 594" fill="none" xmlns="http://www.w3.org/2000/svg">
<path d="M228.577 31.0673C228.577 31.0673 370.439 -45.7692 560.142 42.2316C749.845 130.561 614.96 279.637 729.579 383.727C843.866 487.818 246.85 713.73 66.117 514.743C-114.616 315.757 120.935 87.5455 228.577 31.0673Z" fill="#EFF4FF"/>
<path d="M445.671 213.024C445.671 213.024 443.484 219.759 453.241 221.401C462.998 223.208 462.998 235.363 454.418 235.035C445.839 234.87 439.783 231.75 439.783 220.252C439.783 220.252 407.149 208.754 413.878 203.826C420.943 199.063 436.924 205.797 445.671 213.024Z" fill="#3E7BB7"/>
<path d="M377.374 236.348L398.401 218.937C398.401 218.937 392.682 219.266 395.71 212.203C398.738 205.14 410.681 201.362 409.672 210.56C409.672 210.56 421.784 204.319 429.522 208.425C446.175 217.295 432.55 240.291 421.279 242.426C410.177 244.725 404.794 237.827 404.794 237.827L397.56 253.431L377.374 236.348Z" fill="#FE9593"/>
<path d="M380.403 403.231L376.702 410.13L365.095 410.294L366.609 401.26L380.403 403.231Z" fill="#FDB602"/>
<path d="M256.257 386.149L226.65 357.404" stroke="black" stroke-width="2" stroke-miterlimit="10"/>
<path d="M271.06 386.149L241.453 357.404" stroke="black" stroke-width="2" stroke-miterlimit="10"/>
<path d="M364.422 422.449V358.883H249.528V372.187L256.257 378.758V393.212L364.422 422.449Z" fill="#FD9F02"/>
<path d="M434.569 428.198V271.499C434.569 271.499 459.297 282.011 459.297 301.393C459.297 320.775 441.635 325.703 441.635 325.703L484.53 386.642L434.569 428.198Z" fill="#FD9F02"/>
<path d="M501.449 449.711C514.456 437.011 514.456 416.419 501.449 403.718C488.441 391.018 467.353 391.018 454.346 403.718C441.338 416.419 441.338 437.011 454.346 449.711C467.353 462.412 488.441 462.412 501.449 449.711Z" fill="#08223B"/>
<path d="M477.968 444.953C488.281 444.953 496.64 436.79 496.64 426.721C496.64 416.651 488.281 408.488 477.968 408.488C467.656 408.488 459.296 416.651 459.296 426.721C459.296 436.79 467.656 444.953 477.968 444.953Z" fill="#D8D9DD"/>
<path d="M322.982 449.74C335.989 437.039 335.989 416.447 322.982 403.747C309.975 391.046 288.886 391.046 275.879 403.747C262.872 416.447 262.872 437.039 275.879 449.74C288.886 462.44 309.975 462.441 322.982 449.74Z" fill="#08223B"/>
<path d="M299.489 444.953C309.801 444.953 318.161 436.79 318.161 426.721C318.161 416.651 309.801 408.488 299.489 408.488C289.176 408.488 280.816 416.651 280.816 426.721C280.816 436.79 289.176 444.953 299.489 444.953Z" fill="#D8D9DD"/>
<path d="M236.407 428.198C236.407 428.198 240.781 365.125 301.003 365.125C361.225 365.125 365.767 427.706 365.767 427.706L236.407 428.198Z" fill="#FDB602"/>
<path d="M262.145 424.256C262.145 424.256 264.836 386.149 301.171 386.149C337.506 386.149 340.198 423.928 340.198 423.928L262.145 424.256Z" fill="#FD9F02"/>
<path d="M434.569 427.87C434.569 427.87 437.429 385.985 477.465 385.985C517.501 385.985 520.529 427.542 520.529 427.542L434.569 427.87Z" fill="#FDB602"/>
<path d="M238.931 422.45H518.005C519.351 422.45 520.528 423.599 520.528 424.914V425.242C520.528 426.556 519.351 427.706 518.005 427.706H238.931C237.585 427.706 236.407 426.556 236.407 425.242V424.914C236.407 423.599 237.585 422.45 238.931 422.45Z" fill="#FD9F02"/>
<path d="M453.24 285.461C453.24 285.461 438.437 298.766 453.24 318.312C453.24 318.312 459.801 312.07 459.296 301.558C459.128 297.78 458.287 294.659 457.278 292.195C455.595 287.596 453.24 285.461 453.24 285.461Z" fill="#FFC74A"/>
<path d="M424.139 277.905C424.139 281.847 427.335 284.968 431.372 284.968C435.409 284.968 438.605 281.847 438.605 277.905C438.605 273.963 435.409 270.842 431.372 270.842C427.335 270.842 424.139 273.963 424.139 277.905Z" fill="#232323"/>
<path d="M290.405 348.699C290.405 345.414 293.096 342.786 296.461 342.786H337.674C341.039 342.786 343.73 345.414 343.73 348.699C343.73 348.864 343.898 349.028 344.067 349.028H365.767C369.131 349.028 372.159 351.492 372.495 354.777C373 358.719 369.804 362.004 365.935 362.004H296.797C293.096 362.004 290.068 359.047 290.068 355.434C290.068 355.105 290.068 354.777 290.237 354.448C290.237 354.12 290.068 353.791 290.068 353.463V348.699H290.405Z" fill="#08223B"/>
<path d="M223.714 358.93H290.497V306.04H223.714V358.93Z" fill="#FE8374"/>
<path d="M212.828 294.543H279.61V241.653H212.828V294.543Z" fill="#5793DB"/>
<path d="M215.315 308.489H290.341V301.426H215.315V308.489Z" fill="white"/>
<path d="M221.339 301.484H296.364V294.421H221.339V301.484Z" fill="#FE8374"/>
<path d="M264.785 359.013H267.477V241.57H264.785V359.013Z" fill="white"/>
<path d="M244.958 359.013H247.649L247.649 241.57H244.958L244.958 359.013Z" fill="white"/>
<path d="M350.292 316.012C350.292 316.012 408.159 305.5 416.57 343.443C424.981 381.386 380.403 403.232 380.403 403.232H366.272C366.272 403.232 371.151 373.83 377.375 351.984C377.375 351.984 354.161 355.269 328.928 349.027C324.386 347.878 322.031 342.95 324.05 338.844C328.087 330.795 336.161 319.133 350.292 316.012Z" fill="#5793DB"/>
<path d="M364.085 409.473C364.085 409.473 360.384 416.043 364.085 422.449H409.672C409.672 422.449 408.495 413.251 394.869 411.937C381.243 410.623 376.702 409.637 376.702 409.637H364.085V409.473Z" fill="#08223B"/>
<path d="M416.738 343.443C416.738 343.443 413.542 338.023 409.672 347.057C405.803 356.091 408.663 373.173 395.71 380.893C382.758 388.613 387.468 395.841 392.682 395.512C392.682 395.512 403.953 388.613 413.205 371.859C413.205 371.695 419.934 360.197 416.738 343.443Z" fill="#69ABED"/>
<path d="M338.349 350.999C338.349 350.999 289.061 347.714 301.172 294.495C310.424 253.431 349.115 224.687 383.263 235.528C406.645 243.083 400.926 270.843 387.973 279.219C375.188 287.596 365.095 305.993 377.543 312.07C387.973 317.327 339.358 327.675 338.349 350.999Z" fill="#3E7BB7"/>
<path d="M354.497 329.481C354.497 329.481 392.01 332.274 396.047 345.578C400.084 358.883 373.001 403.232 373.001 403.232" stroke="#3E7BB7" stroke-miterlimit="10"/>
<path d="M356.347 234.378L386.121 227.808L402.439 243.576L398.906 260.987L356.347 234.378Z" fill="#3E7BB7"/>
<path d="M360.552 252.281C360.552 252.281 300.834 294.495 350.29 332.438" stroke="#5793DB" stroke-miterlimit="10"/>
<path d="M374.514 235.199C374.514 235.199 346.926 236.513 341.88 262.137C336.833 287.76 358.533 311.085 386.794 305.664C415.055 300.079 419.765 288.417 419.765 288.417V270.842H389.485C389.485 270.842 400.756 257.702 399.747 245.875C398.737 234.213 374.514 235.199 374.514 235.199Z" fill="#5793DB"/>
<path d="M344.74 285.461C344.74 285.461 341.712 274.456 360.385 284.968C379.057 295.48 369.3 305.336 369.3 305.336C369.3 305.336 354.833 303.036 344.74 285.461Z" fill="#69ABED"/>
<path d="M392.345 238.484C392.345 238.484 364.589 251.132 361.057 262.958C357.524 274.62 371.15 297.451 419.765 280.369" stroke="#3E7BB7" stroke-miterlimit="10"/>
<path d="M431.373 219.431C431.373 219.431 426.326 232.078 425.317 232.078C424.308 232.078 418.925 227.972 418.925 227.972L431.373 219.431Z" fill="#FF5252"/>
<path d="M407.149 211.054C407.486 210.561 407.654 209.904 407.318 209.247C406.981 208.261 405.972 206.619 403.112 207.276C398.907 208.261 397.897 212.039 398.234 213.682C398.57 215.324 401.935 215.16 402.607 213.353C403.112 211.382 404.458 210.232 405.804 211.218C406.308 211.711 406.813 211.382 407.149 211.054Z" fill="#FF8080"/>
<path d="M420.943 215.16C420.943 215.16 420.774 211.875 423.634 212.861C426.494 213.846 429.522 215.325 429.522 216.803C429.353 218.281 420.438 217.131 420.943 215.16Z" fill="#08223B"/>
<path d="M438.438 224.03C438.438 224.03 437.092 226.986 435.41 225.18C433.728 223.208 432.045 220.909 432.718 219.595C433.559 218.117 439.615 222.551 438.438 224.03Z" fill="#08223B"/>
<path d="M439.447 215.653C439.447 215.653 441.297 216.31 440.288 218.609C439.279 220.909 433.896 219.266 433.391 215.653C433.391 215.653 428.345 215.817 427.84 211.875C427.84 211.875 421.952 213.518 421.616 209.575C421.616 209.575 417.747 213.353 414.046 210.889C414.046 210.889 411.691 214.503 408.327 212.696L409.841 210.561C409.841 210.561 409.841 205.962 407.485 205.469C405.13 204.976 402.775 205.633 402.775 205.633C402.775 205.633 405.299 200.706 408.495 200.049C411.691 199.392 414.551 202.184 414.046 203.662C414.046 203.662 426.326 202.841 430.868 204.976C435.242 207.44 441.466 209.74 439.447 215.653Z" fill="#08223B"/>
<path d="M414.046 203.991C414.046 203.991 421.616 192 430.027 192C438.438 192 449.876 202.677 452.232 206.29C454.587 209.904 447.353 218.609 447.353 218.609C447.353 218.609 426.662 205.469 414.046 203.991Z" fill="#5793DB"/>
<path d="M441.802 196.764C441.802 196.764 444.998 207.44 440.288 214.503" stroke="#3E7BB7" stroke-width="0.5" stroke-miterlimit="10"/>
<path d="M441.13 196.271C441.13 196.271 429.186 195.942 422.962 206.29" stroke="#3E7BB7" stroke-width="0.5" stroke-miterlimit="10"/>
<path d="M451.559 211.71C451.559 211.71 448.363 210.068 447.522 212.367C446.512 214.503 449.036 216.145 449.036 216.145C449.036 216.145 451.054 213.353 451.559 211.71Z" fill="white"/>
<path d="M435.578 216.967C435.578 219.102 437.429 220.909 439.615 220.909C441.802 220.909 443.653 219.102 443.653 216.967C443.653 214.832 441.802 213.025 439.615 213.025C437.429 213.189 435.578 214.832 435.578 216.967Z" fill="#08223B"/>
<path d="M433.56 216.31C433.56 218.445 435.41 220.252 437.597 220.252C439.784 220.252 441.634 218.445 441.634 216.31C441.634 214.174 439.784 212.368 437.597 212.368C435.242 212.368 433.56 214.174 433.56 216.31Z" fill="#08223B"/>
<path d="M421.615 209.247C421.615 210.889 422.961 212.368 424.811 212.368C426.494 212.368 428.008 211.054 428.008 209.247C428.008 207.44 426.662 206.126 424.811 206.126C423.129 206.29 421.615 207.604 421.615 209.247Z" fill="#08223B"/>
<path d="M429.521 212.367C429.521 214.01 430.867 215.488 432.718 215.488C434.4 215.488 435.914 214.174 435.914 212.367C435.914 210.725 434.568 209.247 432.718 209.247C430.867 209.247 429.521 210.725 429.521 212.367Z" fill="#08223B"/>
<path d="M429.354 238.484C429.354 238.484 418.419 250.967 404.794 238.812L398.401 218.938L402.27 225.672L411.186 216.145L409.167 211.218L409.504 210.561C409.504 210.561 417.915 229.778 431.372 235.363L429.354 238.484Z" fill="white"/>
<path d="M422.626 218.609C421.953 219.266 421.953 220.252 422.289 220.58C422.794 220.909 423.467 220.58 424.14 219.923C424.813 219.266 424.813 218.281 424.476 217.952C424.14 217.624 423.299 217.788 422.626 218.609Z" fill="#08223B"/>
<path d="M431.204 224.358C430.531 225.015 430.531 226.001 430.867 226.329C431.372 226.658 432.045 226.329 432.718 225.672C433.391 225.015 433.391 224.03 433.054 223.701C432.718 223.373 431.877 223.701 431.204 224.358Z" fill="#08223B"/>
<path d="M419.765 270.842C419.765 270.842 432.55 266.407 438.269 275.442C442.138 281.683 439.783 288.582 434.737 288.089C429.69 287.596 429.017 282.504 429.017 282.504L418.756 283.819L419.765 270.842Z" fill="white"/>
<path d="M420.606 282.504C420.606 286.446 423.803 289.567 427.84 289.567C431.877 289.567 435.073 286.446 435.073 282.504C435.073 278.562 431.877 275.441 427.84 275.441C423.803 275.441 420.606 278.562 420.606 282.504Z" fill="#08223B"/>
<path d="M385.112 410.787C385.112 410.787 389.654 405.203 394.869 409.473C400.084 413.744 395.037 419.329 385.112 410.787Z" stroke="#F1F1F1" stroke-miterlimit="10"/>
<path d="M385.113 410.787C385.113 410.787 384.271 406.353 381.748 405.696C379.225 405.038 378.384 409.802 378.384 409.802" stroke="#F1F1F1" stroke-miterlimit="10"/>
<path d="M393.523 411.773V416.537" stroke="#F1F1F1" stroke-miterlimit="10"/>
<path d="M389.654 410.787V415.55" stroke="#F1F1F1" stroke-miterlimit="10"/>
<path d="M363.244 418.836H409.672C410.681 418.836 411.354 419.657 411.354 420.478V420.807C411.354 421.793 410.513 422.45 409.672 422.45H363.244C362.234 422.45 361.562 421.628 361.562 420.807V420.478C361.562 419.657 362.403 418.836 363.244 418.836Z" fill="#08223B"/>
<path d="M252.173 425.359C254.547 419.447 251.564 412.775 245.509 410.456C239.455 408.138 232.622 411.051 230.247 416.963C227.873 422.875 230.856 429.547 236.911 431.865C242.966 434.184 249.799 431.271 252.173 425.359Z" fill="white"/>
<path d="M220.489 425.651C225.087 421.16 225.087 413.881 220.489 409.39C215.89 404.9 208.435 404.9 203.836 409.39C199.238 413.881 199.238 421.16 203.836 425.651C208.435 430.141 215.89 430.141 220.489 425.651Z" fill="white"/>
<path d="M230.347 422.734C237.761 421.024 242.352 413.77 240.601 406.53C238.851 399.291 231.421 394.808 224.007 396.518C216.593 398.227 212.002 405.481 213.753 412.721C215.504 419.96 222.933 424.443 230.347 422.734Z" fill="white"/>
<path d="M221.94 440.845C227.514 440.845 232.033 436.433 232.033 430.99C232.033 425.547 227.514 421.135 221.94 421.135C216.366 421.135 211.847 425.547 211.847 430.99C211.847 436.433 216.366 440.845 221.94 440.845Z" fill="white"/>
<path d="M234.894 438.875C240.468 438.875 244.987 434.462 244.987 429.019C244.987 423.576 240.468 419.164 234.894 419.164C229.32 419.164 224.801 423.576 224.801 429.019C224.801 434.462 229.32 438.875 234.894 438.875Z" fill="white"/>
<path d="M179.886 439.204C189.455 439.204 197.213 431.629 197.213 422.285C197.213 412.942 189.455 405.367 179.886 405.367C170.317 405.367 162.56 412.942 162.56 422.285C162.56 431.629 170.317 439.204 179.886 439.204Z" fill="white"/>
<path d="M137.327 433.948C146.896 433.948 154.653 426.373 154.653 417.03C154.653 407.686 146.896 400.111 137.327 400.111C127.757 400.111 120 407.686 120 417.03C120 426.373 127.757 433.948 137.327 433.948Z" fill="white"/>
<path d="M163.998 424.524C174.848 422.023 181.566 411.406 179.004 400.812C176.443 390.218 165.57 383.658 154.72 386.159C143.871 388.661 137.152 399.277 139.714 409.871C142.276 420.465 153.148 427.026 163.998 424.524Z" fill="white"/>
<path d="M151.793 451.194C159.969 451.194 166.597 444.723 166.597 436.74C166.597 428.757 159.969 422.286 151.793 422.286C143.618 422.286 136.99 428.757 136.99 436.74C136.99 444.723 143.618 451.194 151.793 451.194Z" fill="white"/>
<path d="M170.633 448.402C178.809 448.402 185.437 441.931 185.437 433.948C185.437 425.965 178.809 419.493 170.633 419.493C162.458 419.493 155.83 425.965 155.83 433.948C155.83 441.931 162.458 448.402 170.633 448.402Z" fill="white"/>
<path d="M456.942 294.002C456.942 294.002 459.97 298.437 456.437 301.229C452.905 304.022 451.222 288.91 456.942 294.002Z" fill="white"/>
<path d="M454.082 288.746C454.082 288.746 456.269 291.21 454.755 292.031C453.241 293.017 452.568 288.582 454.082 288.746Z" fill="white"/>
<path d="M673.228 467.622H80.2812C78.4723 467.622 77 465.912 77 463.811C77 461.71 78.4723 460 80.2812 460H673.228C675.037 460 676.509 461.71 676.509 463.811C676.509 465.912 675.037 467.622 673.228 467.622Z" fill="#95A6DB"/>
<path d="M236.226 60.0545C236.226 60.2743 236.226 60.4942 236.205 60.7141H151.021C151.021 60.4942 151 60.2743 151 60.0545C151 50.38 157.752 42.5378 166.081 42.5378C167.658 42.5378 169.173 42.8065 170.582 43.344C174.263 33.7184 182.571 27 192.246 27C202.279 27 210.86 34.2314 214.31 44.4678C216.371 43.2463 218.706 42.5622 221.167 42.5622C229.475 42.5378 236.226 50.38 236.226 60.0545Z" fill="#E3EAFF"/>
<path d="M333.295 104.924H404.138C404.138 104.924 406.536 80.2635 389.379 75.1019C372.222 69.9403 368.717 80.2635 368.717 80.2635C368.717 80.2635 365.027 59.0437 341.044 61.1466C317.061 63.2494 317.061 85.9985 317.061 85.9985C317.061 85.9985 296.583 82.9398 294 105.115H333.295V104.924Z" fill="#CCDAFD"/>
<path d="M540 54.211C540.631 38.0624 552.094 25.1875 566.144 25.1875C570.898 25.1875 575.336 26.6533 579.185 29.2186C579.669 21.2786 585.369 15 592.331 15C598.577 15 603.794 20.0571 605.161 26.8244C606.822 26.3602 608.568 26.1159 610.356 26.1159C619.779 26.1159 627.814 32.932 631.011 42.5576C632.883 41.7025 634.944 41.2139 637.089 41.2139C642.242 41.2139 646.827 43.9501 649.856 48.2255C651.539 50.6197 650.046 54.1865 647.395 54.1865H540V54.211Z" fill="#E3EAFF"/>
<path d="M524.295 58.9242H595.138C595.138 58.9242 597.536 34.2635 580.379 29.1019C563.222 23.9403 559.717 34.2635 559.717 34.2635C559.717 34.2635 556.027 13.0437 532.044 15.1466C508.061 17.2494 508.061 39.9985 508.061 39.9985C508.061 39.9985 487.583 36.9398 485 59.1154H524.295V58.9242Z" fill="#CCDAFD"/>
<path d="M84.0418 152.842H135.144C135.144 152.842 136.805 135.063 124.629 131.239C112.268 127.416 109.685 134.872 109.685 134.872C109.685 134.872 106.918 119.578 89.7608 121.108C72.6037 122.637 72.6037 139.077 72.6037 139.077C72.6037 139.077 57.8449 136.975 56 152.842H84.0418V152.842Z" fill="#CCDAFD"/>
</svg>
