<svg width="744" height="594" viewBox="0 0 744 594" fill="none" xmlns="http://www.w3.org/2000/svg">
<path d="M228.577 31.0673C228.577 31.0673 370.439 -45.7692 560.142 42.2316C749.845 130.561 614.96 279.637 729.579 383.727C843.866 487.818 246.85 713.73 66.117 514.743C-114.616 315.757 120.935 87.5455 228.577 31.0673Z" fill="#EFF4FF"/>
<path d="M656.515 510H63.5683C61.7594 510 60.2871 508.29 60.2871 506.189C60.2871 504.088 61.7594 502.378 63.5683 502.378H656.515C658.324 502.378 659.796 504.088 659.796 506.189C659.796 508.29 658.324 510 656.515 510Z" fill="#95A6DB"/>
<path d="M219.761 157.004H302.274C308.774 157.004 314.053 150.872 314.053 143.323V102.402C314.053 94.8528 308.774 88.7207 302.274 88.7207H219.761C213.262 88.7207 207.982 94.8528 207.982 102.402V143.298C207.961 150.872 213.241 157.004 219.761 157.004Z" fill="#B8C6F2"/>
<path d="M222.979 153.95V179.358C222.979 181.41 225.335 182.045 226.134 180.237L237.64 153.95H222.979Z" fill="#B8C6F2"/>
<path d="M221.801 110.073H299.225C302.211 110.073 304.609 107.263 304.609 103.819C304.609 100.35 302.19 97.5645 299.225 97.5645H221.801C218.815 97.5645 216.417 100.374 216.417 103.819C216.417 107.263 218.815 110.073 221.801 110.073Z" fill="white"/>
<path d="M221.801 129.935H299.225C302.211 129.935 304.609 127.126 304.609 123.681C304.609 120.212 302.19 117.427 299.225 117.427H221.801C218.815 117.427 216.417 120.236 216.417 123.681C216.417 127.126 218.815 129.935 221.801 129.935Z" fill="white"/>
<path d="M221.002 149.797H270.682C273.227 149.797 275.288 147.402 275.288 144.446V142.614C275.288 139.658 273.227 137.264 270.682 137.264H221.002C218.457 137.264 216.396 139.658 216.396 142.614V144.446C216.417 147.402 218.457 149.797 221.002 149.797Z" fill="white"/>
<path d="M639.584 370.282C639.584 369.305 639.563 368.425 639.563 367.619C639.542 364.932 638.7 362.366 637.186 360.363C619.266 336.446 543.967 231.981 519.905 205.645C512.438 197.412 499.524 195.188 478.175 195.188C478.175 195.188 133.925 195.188 120.905 195.188C98.2316 195.188 90.0918 209.431 90.0918 239.554C90.0918 261.102 91.7955 410.714 91.7955 410.714C91.7955 410.714 95.6235 463.582 103.595 467.027C105.215 467.735 631.465 471.522 634.935 464.828C638.406 458.134 639.5 415.112 639.5 415.112C639.542 411.472 639.563 407.88 639.584 404.362C639.689 390.29 639.647 377.684 639.584 370.282Z" fill="#FCDB50"/>
<path d="M639.626 409.933C639.626 409.933 640.088 459.747 637.207 464.486C633.947 468.517 628.941 471.034 623.514 471.4C617.814 472.304 573.056 471.889 573.056 471.889C573.056 471.889 111.272 467.882 103.616 467.051C95.9389 466.196 92.9312 460.455 92.6788 452.198C92.6788 450.439 91.9636 422.979 91.8164 407.343L639.626 409.933Z" fill="#FFCE00"/>
<path d="M540.791 384.134C512.691 384.134 489.891 410.593 489.891 443.256C489.891 475.92 512.67 502.378 540.791 502.378C568.912 502.378 591.691 475.92 591.691 443.256C591.691 410.593 568.912 384.134 540.791 384.134Z" fill="#3A3D96"/>
<path d="M540.791 400.136C520.305 400.136 503.688 419.436 503.688 443.231C503.688 467.026 520.305 486.327 540.791 486.327C561.298 486.327 577.915 467.026 577.915 443.231C577.915 419.436 561.298 400.136 540.791 400.136Z" fill="#B8C6F2"/>
<path d="M540.791 419.998C529.748 419.998 520.788 430.405 520.788 443.231C520.788 456.057 529.748 466.465 540.791 466.465C551.833 466.465 560.793 456.057 560.793 443.231C560.814 430.405 551.854 419.998 540.791 419.998Z" fill="#98B0F2"/>
<path d="M164.149 384.134C136.049 384.134 113.249 410.593 113.249 443.256C113.249 475.92 136.028 502.378 164.149 502.378C192.271 502.378 215.05 475.92 215.05 443.256C215.05 410.593 192.25 384.134 164.149 384.134Z" fill="#3A3D96"/>
<path d="M164.15 400.136C143.643 400.136 127.026 419.436 127.026 443.231C127.026 467.026 143.643 486.327 164.15 486.327C184.636 486.327 201.252 467.026 201.252 443.231C201.252 419.436 184.636 400.136 164.15 400.136Z" fill="#B8C6F2"/>
<path d="M164.15 419.998C153.108 419.998 144.147 430.405 144.147 443.231C144.147 456.057 153.108 466.465 164.15 466.465C175.192 466.465 184.153 456.057 184.153 443.231C184.153 430.405 175.192 419.998 164.15 419.998Z" fill="#98B0F2"/>
<path d="M551.518 319.344H449.444C446.289 319.344 443.723 316.364 443.723 312.723V233.935C443.723 227.901 447.929 223.039 453.103 223.039H488.292C497.736 223.039 506.612 228.243 512.207 237.062L556.755 307.227C559.994 312.259 556.902 319.344 551.518 319.344Z" fill="#5E8ADB"/>
<path d="M566.641 307.716C566.641 317.146 558.312 324.768 548.026 324.768C537.741 324.768 529.412 317.121 529.412 307.716C529.412 298.285 537.741 290.663 548.026 290.663C558.312 290.663 566.641 298.285 566.641 307.716Z" fill="#98B0F2"/>
<path d="M639.604 404.363H634.262C626.164 404.363 619.602 396.74 619.602 387.335C619.602 382.62 621.242 378.369 623.892 375.29C626.543 372.212 630.223 370.307 634.262 370.307H639.604C639.646 377.685 639.688 390.291 639.604 404.363Z" fill="#FAAF16"/>
<path d="M248.24 420.462H398.88C403.402 420.462 407.041 416.211 407.041 410.983V221.158C407.041 215.906 403.381 211.679 398.88 211.679H248.24C243.718 211.679 240.079 215.93 240.079 221.158V410.983C240.058 416.236 243.718 420.462 248.24 420.462Z" fill="#272A66"/>
<path d="M367.393 419.998H295.229V251.574H367.393V419.998Z" fill="#313480"/>
<path d="M338.872 419.998H267.128V290.663H338.872V419.998Z" fill="#3A3D96"/>
<path d="M399.364 419.998H324.128V327.26H399.364V419.998Z" fill="#4043A6"/>
<path d="M120.926 419.998H271.566C276.067 419.998 279.727 415.747 279.727 410.519V220.694C279.727 215.441 276.067 211.215 271.566 211.215H120.926C116.404 211.215 112.766 215.466 112.766 220.694V410.519C112.766 415.771 116.425 419.998 120.926 419.998Z" fill="#FFE578"/>
<path d="M279.748 370.282H112.766V351.031H279.748V370.282Z" fill="#B8C6F2"/>
<path d="M250.386 319.344H138.384C131.779 319.344 126.416 313.114 126.416 305.443V236.94C126.416 229.269 131.779 223.039 138.384 223.039H250.386C256.99 223.039 262.353 229.269 262.353 236.94V305.443C262.353 313.139 256.99 319.344 250.386 319.344Z" fill="#5E8ADB"/>
<path d="M192.629 216.37L200.075 216.419L201.757 236.843L193.071 242.169L183.795 236.916L185.288 216.419L192.629 216.37Z" fill="#F37A50"/>
<path d="M177.821 201.809C179.524 216.639 189.01 227.388 199.043 225.849C209.055 224.31 215.807 211.044 214.124 196.215C212.42 181.385 202.934 170.636 192.901 172.175C182.869 173.714 176.117 186.98 177.821 201.809Z" fill="#F37A50"/>
<path d="M202.261 202.127C204.112 204.912 206.426 208.308 206.426 208.308C206.426 208.308 205.753 211.533 202.198 211.972C203.65 211.093 205.038 209.749 204.217 207.477C203.439 205.23 202.261 202.127 202.261 202.127Z" fill="#DE623C"/>
<path d="M173.677 189.887C172.583 175.766 183.773 171.125 183.773 171.125C183.773 171.125 181.27 170.099 181.88 165.823C183.647 167.094 185.813 167.656 187.874 167.436C201.777 165.848 210.527 168.486 209.139 174.814C208.655 177.061 217.657 178.21 213.64 193.161C212.777 191.402 211.999 184.781 209.307 183.315C206.594 181.85 208.213 187.029 202.072 186.223C195.888 185.417 191.849 182.436 187.327 185.27C183.71 187.835 179.209 205.034 179.419 206.207C178.935 203.52 174.161 196.093 173.677 189.887Z" fill="#201D40"/>
<path d="M214.209 204.302C214.209 204.302 213.031 212.364 211.516 214.513C211.18 211.044 204.639 213.219 201.799 213.512C196.646 214.025 191.409 208.723 189.684 216.59C183.122 217.03 180.745 200.246 180.745 200.246C176.707 217.005 183.942 229.245 199.843 230.955C210.297 232.055 216.102 216.517 214.209 204.302Z" fill="#201D40"/>
<path d="M194.836 201.247C193.869 201.321 193.006 200.466 192.943 199.342C192.88 198.218 193.616 197.216 194.584 197.143C195.551 197.07 196.414 197.925 196.477 199.049C196.54 200.197 195.804 201.174 194.836 201.247Z" fill="black"/>
<path d="M209.455 200.612C208.488 200.685 207.625 199.83 207.562 198.707C207.499 197.583 208.235 196.581 209.203 196.508C210.17 196.435 211.033 197.29 211.096 198.413C211.18 199.562 210.444 200.539 209.455 200.612Z" fill="black"/>
<path d="M212.399 196.312C212.104 196.337 211.789 196.19 211.621 195.873C211.116 195.018 210.548 194.529 209.917 194.431C208.823 194.236 207.793 195.164 207.793 195.164C207.414 195.506 206.867 195.433 206.552 194.993C206.257 194.553 206.299 193.918 206.678 193.576C206.741 193.527 208.297 192.086 210.148 192.404C211.284 192.599 212.273 193.381 213.072 194.724C213.345 195.189 213.24 195.824 212.841 196.141C212.714 196.264 212.546 196.312 212.399 196.312Z" fill="#201D40"/>
<path d="M190.841 197.974C190.652 197.998 190.442 197.925 190.273 197.803C189.874 197.485 189.768 196.85 190.063 196.386C191.115 194.627 192.335 193.625 193.702 193.381C195.447 193.088 196.73 194.26 196.794 194.309C197.172 194.651 197.235 195.311 196.941 195.751C196.646 196.19 196.099 196.264 195.721 195.922C195.7 195.897 194.943 195.238 193.954 195.433C193.113 195.58 192.292 196.313 191.535 197.583C191.346 197.803 191.094 197.949 190.841 197.974Z" fill="#201D40"/>
<path d="M180.555 200.319C182.742 202.738 183.142 206.402 181.438 208.479C179.734 210.556 176.58 210.287 174.371 207.868C172.184 205.45 171.784 201.785 173.488 199.709C175.191 197.608 178.346 197.876 180.555 200.319Z" fill="#F37A50"/>
<path d="M178.558 207.478C178.642 207.429 178.747 207.38 178.81 207.282C179.841 205.987 180.072 204.399 179.399 203.08C178.726 201.712 177.317 200.955 176.034 201.297C175.676 201.394 175.445 201.81 175.529 202.225C175.613 202.64 175.971 202.909 176.328 202.811C177.022 202.64 177.864 203.104 178.242 203.862C178.621 204.595 178.453 205.45 177.822 206.256C177.569 206.574 177.59 207.062 177.864 207.331C178.074 207.526 178.347 207.575 178.558 207.478Z" fill="#DE623C"/>
<path d="M196.057 215.808C195.993 215.27 196.078 214.782 196.54 214.831C197.697 215.002 199.632 215.246 201.462 215.27C203.292 215.295 205.227 215.075 206.405 214.928C206.868 214.879 206.973 215.368 206.889 215.905C206.51 218.08 204.386 220.498 201.546 220.474C198.728 220.474 196.33 217.787 196.057 215.808Z" fill="white"/>
<path d="M206.216 484.006C212.799 494.56 228.974 488.086 228.448 502.353H193.617C193.659 499.079 194.143 491.286 194.711 488.232L206.216 484.006Z" fill="black"/>
<path d="M169.407 484.006C175.991 494.56 192.165 488.086 191.64 502.353H156.809C156.851 499.079 157.334 491.286 157.902 488.232L169.407 484.006Z" fill="black"/>
<path d="M217.595 322.593C217.595 322.593 221.591 390.241 219.971 405.29C218.352 420.34 212.61 439.615 213.262 489.356C205.248 491.677 193.617 489.356 193.617 489.356C193.617 489.356 191.892 433.092 200.368 407.978C196.919 383.572 185.855 327.675 185.855 327.675L217.595 322.593Z" fill="#062440"/>
<path d="M202.43 324.451C202.43 324.451 194.374 400.405 190.42 414.819C186.466 429.233 183.037 439.787 175.886 488.795C167.641 489.283 155.736 488.99 155.736 488.99C155.736 488.99 156.809 428.256 169.639 414.135C170.081 389.387 167.557 324.964 167.557 324.964L202.43 324.451Z" fill="#2C2858"/>
<path d="M165.243 238.235C165.243 238.235 179.252 232.543 183.921 235.157C198.434 243.268 201.757 235.157 201.757 235.157C206.384 235.621 220.393 238.235 220.393 238.235C220.393 256.387 221.444 274.612 221.15 288.366C220.939 300.337 222.917 332.903 222.917 332.903C222.917 332.903 207.478 337.594 192.86 337.741C178.242 337.618 163.393 333.099 163.393 333.099C163.393 333.099 164.171 300.118 164.823 287.853C164.613 274.099 165.243 256.338 165.243 238.235Z" fill="#E62552"/>
<path d="M245.296 265.231C239.511 249.205 222.369 239.017 220.392 238.235L216.417 258.806C224.662 264.474 230.635 270.581 230.635 270.581C229.626 276.298 229.794 281.917 226.934 289.173C226.934 289.173 229.415 285.191 232.465 287.561C235.431 289.857 240.9 285.191 240.9 285.191C240.9 285.191 249.713 277.471 245.296 265.231Z" fill="#C4204A"/>
<path d="M242.077 305.712C242.183 305.737 242.288 305.761 242.372 305.786H242.708C243.318 305.712 243.844 305.224 244.034 304.515L259.451 246.81C259.472 246.688 259.493 246.566 259.514 246.468C259.514 246.395 259.514 246.322 259.514 246.249C259.514 246.2 259.514 246.151 259.514 246.102C259.514 246.053 259.493 246.029 259.493 245.98C259.409 245.32 259.009 244.758 258.42 244.538C258.315 244.514 258.231 244.49 258.126 244.465C258.021 244.441 257.894 244.441 257.789 244.465H218.983L203.439 305.786H242.098L242.077 305.712Z" fill="#80BC48"/>
<path d="M219.341 244.514C218.521 244.22 217.637 244.758 217.385 245.711L202.073 303.269L202.031 303.416C201.778 304.368 202.241 305.394 203.061 305.688C203.882 305.981 204.765 305.443 205.018 304.49L220.372 246.786C220.624 245.833 220.182 244.831 219.341 244.514Z" fill="#17962E"/>
<path d="M248.66 281.135C248.808 281.013 248.955 280.964 249.123 280.891C249.102 280.867 249.081 280.842 249.081 280.818C248.114 279.132 248.177 277.104 249.228 276.298C249.397 276.176 249.586 276.078 249.775 276.029C249.502 274.783 249.754 273.586 250.49 273C250.785 272.78 251.121 272.682 251.5 272.682C251.163 271.461 251.437 270.166 252.257 269.506C253.309 268.7 254.823 269.213 255.643 270.655C256.464 272.096 256.295 273.928 255.244 274.735C254.97 274.93 254.676 275.052 254.381 275.101C255.076 276.665 254.928 278.399 253.982 279.132C253.814 279.254 253.624 279.352 253.435 279.401C253.708 280.647 253.456 281.844 252.72 282.43C252.446 282.65 252.131 282.748 251.794 282.748C252.131 283.823 251.921 284.995 251.184 285.557C250.301 286.241 249.018 285.802 248.324 284.58C247.63 283.359 247.777 281.819 248.66 281.135Z" fill="#F37A50"/>
<path d="M200.958 277.495L204.492 275.125C204.492 275.125 205.48 269.311 211.159 269.164C210.507 271.607 209.582 275.125 209.582 275.125C209.582 275.125 212.379 277.641 219.004 273.342C225.483 271.656 222.727 277.128 224.873 277.544C228.049 278.13 222.559 285.361 216.081 286.461C207.71 287.902 206.721 285.899 206.721 285.899L201.989 287.829L200.958 277.495Z" fill="#F37A50"/>
<path d="M164.78 284.262C176.601 283.31 200.2 275.981 200.2 275.981C203.418 281.722 202.535 289.368 202.535 289.368C184.173 308.058 156.556 314.117 148.08 309.597C140.34 305.493 145.829 250.744 165.264 238.211L164.78 284.262Z" fill="#C4204A"/>
<path d="M227.249 253.284C226.576 255.239 224.851 256.265 223.4 255.581C221.949 254.897 221.318 252.771 221.97 250.841C222.643 248.887 224.367 247.861 225.819 248.545C227.291 249.205 227.922 251.33 227.249 253.284Z" fill="#17962E"/>
<path d="M232.213 252.625C231.814 253.797 230.783 254.408 229.921 253.993C229.058 253.602 228.68 252.332 229.079 251.159C229.479 249.986 230.509 249.376 231.372 249.791C232.234 250.206 232.613 251.452 232.213 252.625Z" fill="#17962E"/>
<path d="M374.65 502.378H295.67V388.654H374.65V502.378Z" fill="#DE8914"/>
<path d="M311.928 502.378H231.098V361.731H311.928V502.378Z" fill="#FF9A16"/>
<path d="M344.277 502.378H261.722V406.488H344.277V502.378Z" fill="#FAAF16"/>
<path d="M333.551 440.446H295.229V422.221H333.551V440.446Z" fill="#FAC352"/>
<path d="M289.823 454.812L275.184 464.217L267.086 447.214L281.725 437.808L289.823 454.812Z" fill="#FF9A16"/>
<path d="M279.748 460.797C279.748 466.954 284.039 471.962 289.36 471.962C294.682 471.962 298.972 466.978 298.972 460.797C298.972 454.641 294.682 449.632 289.36 449.632C284.039 449.632 279.748 454.641 279.748 460.797Z" fill="#FAC352"/>
<path d="M423.005 377.88C417.894 365.079 430.746 348.954 424.625 336.788C420.818 329.215 410.806 326.478 409.691 317.806C409.355 315.216 409.965 312.626 410.259 310.037C411.479 299.947 408.114 289.271 401.593 282.479C395.073 275.712 385.608 273 377.132 275.492C377.111 275.492 377.111 275.492 377.09 275.516C377.09 275.516 377.069 275.516 377.048 275.516C368.866 279.083 361.988 287.756 359.969 297.626C357.95 307.545 360.432 318.538 366.384 326.014C367.919 327.92 369.686 329.679 370.675 332.024C374.019 339.866 367.141 348.759 367.73 357.505C368.677 371.577 387.144 376.292 389.226 390.193C389.773 393.858 389.037 397.596 388.974 401.309C388.7 417.555 403.886 431.481 417.41 427.425L418.105 427.181C431.229 421.562 436.845 400.039 428.642 386.895C426.791 383.841 424.351 381.252 423.005 377.88Z" fill="#17962E"/>
<path d="M377.931 276.298L431.061 466.147C431.482 467.662 430.766 469.299 429.462 469.812C428.158 470.3 426.749 469.47 426.329 467.955C426.329 467.931 426.307 467.906 426.307 467.906L376.732 276.738C376.627 276.347 376.816 275.956 377.153 275.834C377.489 275.712 377.826 275.931 377.931 276.298Z" fill="#068A1E"/>
<path d="M382.453 364.565C393.327 362.391 402.119 372.139 407.335 382.131C408.597 384.378 405.421 386.479 404.39 384.061C400.689 375.461 394.989 366.422 386.176 365.176C385.734 364.883 381.527 365.298 382.453 364.565Z" fill="#068A1E"/>
<path d="M366.321 304.686C377.153 302.683 385.797 312.455 390.887 322.471C391.855 324.23 389.373 325.892 388.574 324.011C384.767 315.435 378.919 306.396 370.064 305.297C369.623 304.979 365.395 305.443 366.321 304.686Z" fill="#068A1E"/>
<path d="M411.71 335.42C402.666 341.552 401.762 354.866 403.087 365.787C403.318 367.644 400.794 368.035 400.605 366.153C400.121 356.088 401.025 344.19 408.366 337.496C408.766 337.154 412.089 334.149 411.71 335.42Z" fill="#068A1E"/>
<path d="M449.234 377.807C453.461 367.717 443.449 354.647 448.476 345.045C451.61 339.084 459.603 337.057 460.613 330.192C460.907 328.139 460.465 326.063 460.255 323.986C459.414 315.924 462.211 307.496 467.511 302.194C472.791 296.917 480.363 294.914 487.093 297.039H487.114H487.135C493.614 300.02 498.977 307.032 500.449 314.947C501.943 322.862 499.818 331.584 494.981 337.423C493.74 338.913 492.31 340.281 491.489 342.138C488.734 348.343 494.076 355.526 493.508 362.489C492.583 373.678 477.818 377.123 475.967 388.141C475.483 391.048 476.03 394.053 476.03 397.009C476.051 409.933 463.768 420.78 453.041 417.311L452.494 417.091C442.124 412.376 437.918 395.152 444.606 384.818C446.142 382.497 448.119 380.47 449.234 377.807Z" fill="#17962E"/>
<path d="M486.42 297.699L441.683 447.946C441.325 449.144 441.872 450.463 442.903 450.878C443.933 451.293 445.069 450.658 445.427 449.437C445.427 449.412 445.427 449.412 445.448 449.388L487.367 298.041C487.451 297.723 487.304 297.406 487.051 297.308C486.799 297.235 486.504 297.406 486.42 297.699Z" fill="#068A1E"/>
<path d="M481.687 367.912C475.42 366.544 469.341 370.331 465.387 375.803C464.293 378.027 460.192 381.105 462.021 383.67C466.459 384.403 466.354 368.523 481.687 367.912Z" fill="#068A1E"/>
<path d="M495.317 320.517C486.714 318.734 479.71 326.356 475.525 334.247C474.725 335.64 476.681 336.984 477.355 335.518C480.488 328.75 485.263 321.666 492.33 320.933C492.751 320.664 495.927 321.153 495.317 320.517Z" fill="#068A1E"/>
<path d="M458.761 344.19C465.871 349.223 466.438 359.85 465.24 368.523C465.029 369.989 467.048 370.355 467.217 368.865C467.721 360.852 467.175 351.373 461.411 345.9C461.054 345.607 458.572 343.213 458.761 344.19Z" fill="#068A1E"/>
<path d="M454.534 356.259C452.956 342.285 469.362 331.34 466.649 317.61C464.966 309.084 456.111 302.976 457.289 294.328C457.647 291.738 458.867 289.466 459.834 287.121C463.599 277.91 463.136 266.55 458.656 257.804C454.176 249.082 445.826 243.195 437.097 242.633C437.076 242.633 437.076 242.633 437.076 242.633C437.055 242.633 437.055 242.633 437.034 242.633C428.306 243.195 419.514 249.082 415.034 257.804C410.553 266.55 410.091 277.91 413.856 287.121C414.823 289.466 416.064 291.763 416.401 294.328C417.558 302.976 408.724 309.084 407.041 317.61C404.328 331.364 420.734 342.285 419.156 356.259C418.735 359.948 417.074 363.271 416.043 366.789C411.605 382.18 422.5 412.742 436.466 413.549H437.203C451.169 412.742 462.085 382.18 457.626 366.789C456.616 363.271 454.955 359.948 454.534 356.259Z" fill="#068A1E"/>
<path d="M437.665 243.683L439.537 443.305C439.558 444.893 438.443 446.212 437.076 446.236C435.688 446.261 434.573 444.966 434.552 443.378C434.552 443.354 434.552 443.329 434.552 443.305L436.424 243.683C436.424 243.292 436.718 242.95 437.055 242.95C437.391 242.975 437.665 243.292 437.665 243.683Z" fill="#17962E"/>
<path d="M419.492 329.972C427.422 331.242 433.353 338.547 436.214 346.878C436.739 350.005 440.588 355.599 437.518 357.774C432.091 357.114 437.602 337.814 419.492 329.972Z" fill="#17962E"/>
<path d="M419.282 266.746C430.135 268.578 435.877 280.915 438.17 292.251C438.632 294.279 435.856 294.987 435.561 292.911C434.131 283.407 430.871 272.756 422.71 268.627C422.332 268.163 418.188 267.136 419.282 266.746Z" fill="#17962E"/>
<path d="M454.05 311.82C446.625 313.799 441.809 321.397 439.748 329.532C438.401 331.975 439.243 338.547 436.551 338.987C433.963 337.276 437.518 331.486 437.897 328.775C440.252 320.981 447.214 311.307 454.05 311.82Z" fill="#17962E"/>
<path d="M453.292 434.779H412.446C409.249 434.779 406.767 438.126 407.146 441.937L412.656 496.759C412.972 499.959 415.264 502.378 417.957 502.378H447.803C450.495 502.378 452.788 499.959 453.103 496.759L458.614 441.937C458.971 438.126 456.489 434.779 453.292 434.779Z" fill="#E62552"/>
<path d="M461.917 446.872H405.106C403.697 446.872 402.54 445.528 402.54 443.891V436.757C402.54 435.121 403.697 433.777 405.106 433.777H461.917C463.326 433.777 464.483 435.121 464.483 436.757V443.891C464.483 445.528 463.326 446.872 461.917 446.872Z" fill="#C4204A"/>
<path d="M395.894 107.972C396.525 91.8231 407.988 78.9483 422.038 78.9483C426.791 78.9483 431.229 80.4141 435.078 82.9793C435.562 75.0394 441.262 68.7607 448.224 68.7607C454.471 68.7607 459.687 73.8179 461.054 80.5851C462.716 80.1209 464.462 79.8766 466.25 79.8766C475.672 79.8766 483.707 86.6927 486.904 96.3184C488.776 95.4633 490.837 94.9747 492.983 94.9747C498.136 94.9747 502.721 97.7109 505.75 101.986C507.432 104.38 505.939 107.947 503.289 107.947H395.894V107.972Z" fill="#E3EAFF"/>
<path d="M679 149.357C679 149.528 679 149.699 679 149.846H629.614C631.002 144.251 635.461 140.171 640.72 140.171C641.919 140.171 643.097 140.391 644.19 140.782C647.03 133.379 653.403 128.225 660.806 128.225C670.86 128.249 679 137.704 679 149.357Z" fill="#E3EAFF"/>
<path d="M626.039 186.784C626.039 187.004 626.038 187.224 626.017 187.444H540.812C540.812 187.224 540.791 187.004 540.791 186.784C540.791 177.11 547.543 169.268 555.872 169.268C557.449 169.268 558.964 169.537 560.373 170.074C564.054 160.448 572.383 153.73 582.037 153.73C592.07 153.73 600.651 160.961 604.101 171.198C606.162 169.976 608.476 169.292 610.958 169.292C619.287 169.292 626.039 177.134 626.039 186.784Z" fill="#E3EAFF"/>
<path d="M141.076 165.188C141.076 165.408 141.076 165.628 141.055 165.848H55.8706C55.8706 165.628 55.8496 165.408 55.8496 165.188C55.8496 155.514 62.6013 147.672 70.9304 147.672C72.5079 147.672 74.0223 147.94 75.4315 148.478C79.1123 138.852 87.4204 132.134 97.0957 132.134C107.129 132.134 115.71 139.365 119.159 149.602C121.221 148.38 123.555 147.696 126.016 147.696C134.324 147.672 141.076 155.514 141.076 165.188Z" fill="#E3EAFF"/>
</svg>
