<svg width="33" height="33" viewBox="0 0 33 33" fill="none" xmlns="http://www.w3.org/2000/svg">
<g filter="url(#filter0_d)">
<path d="M16.4999 4.16656C14.4021 4.16656 12.6955 5.80197 12.6955 7.81242C12.6955 9.82287 14.402 11.4583 16.4999 11.4583C18.5977 11.4583 20.3042 9.82287 20.3042 7.81242C20.3042 5.80197 18.5977 4.16656 16.4999 4.16656ZM16.4999 10.4166C15.0009 10.4166 13.7825 9.24885 13.7825 7.81242C13.7825 6.37599 15.001 5.20827 16.4999 5.20827C17.9988 5.20827 19.2172 6.37599 19.2172 7.81242C19.2172 9.24885 17.9988 10.4166 16.4999 10.4166Z" fill="#FCDB50"/>
<path d="M28.9085 24.1908L24.5607 17.9408C24.4596 17.796 24.2901 17.7085 24.1085 17.7085H18.8368C18.5368 17.7085 18.2933 17.9418 18.2933 18.2293C18.2933 18.5168 18.5368 18.7502 18.8368 18.7502H23.8183L27.4411 23.9585H5.55956L9.18239 18.7501H14.1628C14.4628 18.7501 14.7063 18.5168 14.7063 18.2293C14.7063 17.9418 14.4628 17.7084 14.1628 17.7084H8.89111C8.70957 17.7084 8.54 17.7959 8.43892 17.9397L4.0911 24.1897C3.98023 24.3501 3.96938 24.5553 4.06501 24.7251C4.15851 24.8939 4.34219 25.0001 4.54329 25.0001H28.4563C28.6574 25.0001 28.8411 24.8939 28.9346 24.7261C29.0303 24.5564 29.0205 24.3501 28.9085 24.1908Z" fill="#FCDB50"/>
<path d="M16.4998 0C12.0041 0 8.3476 3.50416 8.3476 7.81251C8.3476 11.9688 15.753 21.2771 16.0693 21.6709C16.1715 21.8 16.3313 21.875 16.4998 21.875C16.6683 21.875 16.8281 21.8 16.9302 21.6709C17.2465 21.2771 24.652 11.9688 24.652 7.81251C24.652 3.50416 20.9955 0 16.4998 0ZM16.4998 20.4844C14.9041 18.4146 9.43459 11.0792 9.43459 7.81251C9.43459 4.07916 12.6042 1.04165 16.4998 1.04165C20.3955 1.04165 23.565 4.07916 23.565 7.81251C23.565 11.0792 18.0955 18.4146 16.4998 20.4844Z" fill="#FCDB50"/>
</g>
<defs>
<filter id="filter0_d" x="0" y="0" width="33" height="33.0001" filterUnits="userSpaceOnUse" color-interpolation-filters="sRGB">
<feFlood flood-opacity="0" result="BackgroundImageFix"/>
<feColorMatrix in="SourceAlpha" type="matrix" values="0 0 0 0 0 0 0 0 0 0 0 0 0 0 0 0 0 0 127 0"/>
<feOffset dy="4"/>
<feGaussianBlur stdDeviation="2"/>
<feColorMatrix type="matrix" values="0 0 0 0 0 0 0 0 0 0 0 0 0 0 0 0 0 0 0.25 0"/>
<feBlend mode="normal" in2="BackgroundImageFix" result="effect1_dropShadow"/>
<feBlend mode="normal" in="SourceGraphic" in2="effect1_dropShadow" result="shape"/>
</filter>
</defs>
</svg>
