<svg width="182" height="51" viewBox="0 0 182 51" fill="none" xmlns="http://www.w3.org/2000/svg">
<path d="M34.748 25.972C35.06 25.972 35.3 26.116 35.468 26.404C35.66 26.692 35.756 27.088 35.756 27.592C35.756 28.528 35.528 29.272 35.072 29.824C33.848 31.336 32.624 32.44 31.4 33.136C30.2 33.832 28.916 34.18 27.548 34.18C25.508 34.18 23.924 33.58 22.796 32.38C21.668 31.156 21.104 29.524 21.104 27.484C21.104 26.212 21.392 24.16 21.968 21.328L23.3 14.74C23.972 11.428 24.356 9.16 24.452 7.936C22.868 7.864 20.996 7.828 18.836 7.828C17.54 7.828 16.604 7.84 16.028 7.864C15.164 12.232 14.348 16.66 13.58 21.148C13.316 22.78 13.04 24.676 12.752 26.836C12.464 28.972 12.272 30.7 12.176 32.02C12.128 32.716 11.84 33.256 11.312 33.64C10.784 34 10.148 34.18 9.404 34.18C8.612 34.18 8 33.988 7.568 33.604C7.136 33.22 6.92 32.716 6.92 32.092C6.92 31.516 7.004 30.568 7.172 29.248C7.364 27.904 7.58 26.5 7.82 25.036C8.084 23.572 8.288 22.3 8.432 21.22C8.744 19.228 9.08 17.284 9.44 15.388C9.8 13.492 10.16 11.668 10.52 9.916L10.88 8.188C8.648 8.452 7.028 8.884 6.02 9.484C5.036 10.084 4.544 10.9 4.544 11.932C4.544 12.772 4.748 13.504 5.156 14.128C5.276 14.296 5.336 14.512 5.336 14.776C5.336 15.256 5.072 15.7 4.544 16.108C4.04 16.492 3.5 16.684 2.924 16.684C2.516 16.684 2.18 16.564 1.916 16.324C1.436 15.916 1.04 15.34 0.728 14.596C0.416 13.828 0.26 12.964 0.26 12.004C0.26 9.964 0.968 8.332 2.384 7.108C3.8 5.86 5.936 4.948 8.792 4.372C11.672 3.796 15.38 3.508 19.916 3.508C24.62 3.508 29.228 3.868 33.74 4.588C34.484 4.708 35.012 4.96 35.324 5.344C35.66 5.704 35.828 6.124 35.828 6.604C35.828 7.324 35.648 7.876 35.288 8.26C34.928 8.62 34.388 8.8 33.668 8.8C33.404 8.8 33.2 8.788 33.056 8.764L29.42 8.296C29.324 9.976 29.072 11.704 28.664 13.48L26.468 23.776C26.228 24.976 26.108 26.008 26.108 26.872C26.108 27.88 26.336 28.636 26.792 29.14C27.272 29.644 27.932 29.896 28.772 29.896C29.564 29.896 30.332 29.632 31.076 29.104C31.844 28.576 32.744 27.7 33.776 26.476C34.064 26.14 34.388 25.972 34.748 25.972ZM48.8817 25.972C49.1937 25.972 49.4337 26.116 49.6017 26.404C49.7937 26.692 49.8897 27.088 49.8897 27.592C49.8897 28.552 49.6617 29.296 49.2057 29.824C48.3177 30.904 47.0577 31.9 45.4257 32.812C43.8177 33.724 42.0897 34.18 40.2417 34.18C37.7217 34.18 35.7657 33.496 34.3737 32.128C32.9817 30.76 32.2857 28.888 32.2857 26.512C32.2857 24.856 32.6337 23.32 33.3297 21.904C34.0257 20.464 34.9857 19.324 36.2097 18.484C37.4577 17.644 38.8617 17.224 40.4217 17.224C41.8137 17.224 42.9297 17.644 43.7697 18.484C44.6097 19.3 45.0297 20.416 45.0297 21.832C45.0297 23.488 44.4297 24.916 43.2297 26.116C42.0537 27.292 40.0497 28.228 37.2177 28.924C37.8177 30.028 38.9577 30.58 40.6377 30.58C41.7177 30.58 42.9417 30.208 44.3097 29.464C45.7017 28.696 46.9017 27.7 47.9097 26.476C48.1977 26.14 48.5217 25.972 48.8817 25.972ZM39.8097 20.752C38.9217 20.752 38.1657 21.268 37.5417 22.3C36.9417 23.332 36.6417 24.58 36.6417 26.044V26.116C38.0577 25.78 39.1737 25.276 39.9897 24.604C40.8057 23.932 41.2137 23.152 41.2137 22.264C41.2137 21.808 41.0817 21.448 40.8177 21.184C40.5777 20.896 40.2417 20.752 39.8097 20.752ZM66.8856 25.972C67.1976 25.972 67.4376 26.116 67.6056 26.404C67.7976 26.692 67.8936 27.088 67.8936 27.592C67.8936 28.552 67.6656 29.296 67.2096 29.824C66.1776 31.096 65.0616 32.14 63.8616 32.956C62.6856 33.772 61.3416 34.18 59.8296 34.18C58.5576 34.18 57.5256 33.724 56.7336 32.812C55.3656 33.7 53.9376 34.156 52.4496 34.18C52.1376 38.812 51.4296 42.676 50.3256 45.772C49.2216 48.892 47.6016 50.452 45.4656 50.452C44.1696 50.452 43.2096 49.984 42.5856 49.048C41.9616 48.112 41.6496 46.816 41.6496 45.16C41.6496 42.808 42.1896 40.06 43.2696 36.916C44.3496 33.796 46.0176 30.352 48.2736 26.584C48.2736 23.08 48.2496 20.644 48.2016 19.276C48.1776 18.58 48.4536 18.028 49.0296 17.62C49.6056 17.212 50.3256 17.008 51.1896 17.008C51.6936 17.008 52.0536 17.116 52.2696 17.332C52.5096 17.524 52.6416 17.92 52.6656 18.52C52.6656 19.12 52.6776 19.564 52.7016 19.852C53.4696 18.892 54.2256 18.208 54.9696 17.8C55.7136 17.368 56.5056 17.152 57.3456 17.152C58.6896 17.152 59.7816 17.692 60.6216 18.772C61.4856 19.852 61.9176 21.268 61.9176 23.02C61.9176 24.292 61.7136 25.528 61.3056 26.728C60.8976 27.928 60.3336 29.02 59.6136 30.004C60.1176 30.148 60.5376 30.22 60.8736 30.22C61.6656 30.22 62.4216 29.932 63.1416 29.356C63.8616 28.78 64.7856 27.82 65.9136 26.476C66.2016 26.14 66.5256 25.972 66.8856 25.972ZM52.6296 30.724C53.4936 30.532 54.2856 30.064 55.0056 29.32C55.7496 28.552 56.3376 27.616 56.7696 26.512C57.2016 25.384 57.4176 24.208 57.4176 22.984C57.4176 22.264 57.2736 21.724 56.9856 21.364C56.6976 20.98 56.3136 20.788 55.8336 20.788C54.9696 20.788 53.9256 21.7 52.7016 23.524C52.6776 24.58 52.6656 26.128 52.6656 28.168C52.6656 29.272 52.6536 30.124 52.6296 30.724ZM45.7536 46.924C46.4016 46.924 46.9416 45.508 47.3736 42.676C47.8056 39.868 48.0816 36.364 48.2016 32.164C47.1696 34.564 46.3536 36.856 45.7536 39.04C45.1536 41.224 44.8536 43.06 44.8536 44.548C44.8536 45.316 44.9496 45.904 45.1416 46.312C45.3096 46.72 45.5136 46.924 45.7536 46.924ZM81.0496 25.972C81.3616 25.972 81.6016 26.116 81.7696 26.404C81.9616 26.692 82.0576 27.088 82.0576 27.592C82.0576 28.552 81.8296 29.296 81.3736 29.824C80.4856 30.904 79.2256 31.9 77.5936 32.812C75.9856 33.724 74.2576 34.18 72.4096 34.18C69.8896 34.18 67.9336 33.496 66.5416 32.128C65.1496 30.76 64.4536 28.888 64.4536 26.512C64.4536 24.856 64.8016 23.32 65.4976 21.904C66.1936 20.464 67.1536 19.324 68.3776 18.484C69.6256 17.644 71.0296 17.224 72.5896 17.224C73.9816 17.224 75.0976 17.644 75.9376 18.484C76.7776 19.3 77.1976 20.416 77.1976 21.832C77.1976 23.488 76.5976 24.916 75.3976 26.116C74.2216 27.292 72.2176 28.228 69.3856 28.924C69.9856 30.028 71.1256 30.58 72.8056 30.58C73.8856 30.58 75.1096 30.208 76.4776 29.464C77.8696 28.696 79.0696 27.7 80.0776 26.476C80.3656 26.14 80.6896 25.972 81.0496 25.972ZM71.9776 20.752C71.0896 20.752 70.3336 21.268 69.7096 22.3C69.1096 23.332 68.8096 24.58 68.8096 26.044V26.116C70.2256 25.78 71.3416 25.276 72.1576 24.604C72.9736 23.932 73.3816 23.152 73.3816 22.264C73.3816 21.808 73.2496 21.448 72.9856 21.184C72.7456 20.896 72.4096 20.752 71.9776 20.752ZM98.2784 22.948C98.5904 22.948 98.8304 23.104 98.9984 23.416C99.1664 23.728 99.2504 24.124 99.2504 24.604C99.2504 25.204 99.1664 25.672 98.9984 26.008C98.8304 26.32 98.5664 26.536 98.2064 26.656C96.7664 27.16 95.1824 27.448 93.4544 27.52C92.9744 29.512 92.0624 31.12 90.7184 32.344C89.3984 33.568 87.9344 34.18 86.3264 34.18C83.9024 34.18 82.1384 33.256 81.0344 31.408C79.9304 29.56 79.3784 26.884 79.3784 23.38C79.3784 20.284 79.7624 16.924 80.5304 13.3C81.2984 9.652 82.4144 6.556 83.8784 4.012C85.3664 1.444 87.1304 0.159998 89.1704 0.159998C90.2744 0.159998 91.1624 0.639998 91.8344 1.6C92.5064 2.536 92.8424 3.76 92.8424 5.272C92.8424 7.24 92.4704 9.196 91.7264 11.14C90.9824 13.084 89.7464 15.124 88.0184 17.26C89.6264 17.38 90.9344 18.052 91.9424 19.276C92.9504 20.476 93.5504 21.964 93.7424 23.74C94.8704 23.668 96.2144 23.428 97.7744 23.02C97.9184 22.972 98.0864 22.948 98.2784 22.948ZM88.3424 3.724C87.8624 3.724 87.3344 4.444 86.7584 5.884C86.2064 7.3 85.6904 9.232 85.2104 11.68C84.7304 14.128 84.3704 16.804 84.1304 19.708C85.7144 16.804 86.9744 14.248 87.9104 12.04C88.8704 9.808 89.3504 7.828 89.3504 6.1C89.3504 5.332 89.2544 4.744 89.0624 4.336C88.8944 3.928 88.6544 3.724 88.3424 3.724ZM86.4704 30.364C87.2144 30.364 87.8744 30.052 88.4504 29.428C89.0264 28.804 89.4104 27.904 89.6024 26.728C88.8584 26.224 88.2824 25.564 87.8744 24.748C87.4904 23.932 87.2984 23.068 87.2984 22.156C87.2984 21.82 87.3464 21.364 87.4424 20.788H87.3344C86.3504 20.788 85.5224 21.28 84.8504 22.264C84.2024 23.224 83.8784 24.52 83.8784 26.152C83.8784 27.52 84.1304 28.564 84.6344 29.284C85.1624 30.004 85.7744 30.364 86.4704 30.364ZM114.502 22.948C114.814 22.948 115.054 23.104 115.222 23.416C115.39 23.728 115.474 24.124 115.474 24.604C115.474 25.756 115.126 26.44 114.43 26.656C112.99 27.16 111.406 27.448 109.678 27.52C109.222 29.536 108.322 31.156 106.978 32.38C105.634 33.58 104.11 34.18 102.406 34.18C100.966 34.18 99.7301 33.832 98.6981 33.136C97.6901 32.44 96.9221 31.516 96.3941 30.364C95.8661 29.212 95.6021 27.964 95.6021 26.62C95.6021 24.796 95.9501 23.176 96.6461 21.76C97.3421 20.32 98.3021 19.204 99.5261 18.412C100.75 17.596 102.106 17.188 103.594 17.188C105.418 17.188 106.882 17.824 107.986 19.096C109.114 20.344 109.774 21.892 109.966 23.74C111.094 23.668 112.438 23.428 113.998 23.02C114.19 22.972 114.358 22.948 114.502 22.948ZM102.694 30.364C103.462 30.364 104.122 30.052 104.674 29.428C105.25 28.804 105.634 27.904 105.826 26.728C105.082 26.224 104.506 25.564 104.098 24.748C103.714 23.932 103.522 23.068 103.522 22.156C103.522 21.772 103.558 21.388 103.63 21.004H103.45C102.49 21.004 101.686 21.472 101.038 22.408C100.414 23.32 100.102 24.616 100.102 26.296C100.102 27.616 100.354 28.624 100.858 29.32C101.386 30.016 101.998 30.364 102.694 30.364ZM129.935 26.044C130.247 26.044 130.487 26.188 130.655 26.476C130.847 26.764 130.943 27.148 130.943 27.628C130.943 28.66 130.607 29.368 129.935 29.752C127.199 31.336 124.775 32.848 122.663 34.288C122.831 34.96 122.915 35.752 122.915 36.664C122.915 38.872 122.495 41.032 121.655 43.144C120.839 45.28 119.735 47.02 118.343 48.364C116.975 49.708 115.523 50.38 113.987 50.38C112.667 50.38 111.647 50.008 110.927 49.264C110.207 48.544 109.847 47.512 109.847 46.168C109.847 44.128 110.459 42.148 111.683 40.228C112.907 38.308 115.055 36.148 118.127 33.748C117.911 33.436 117.611 33.16 117.227 32.92C116.867 32.68 116.375 32.416 115.751 32.128C114.887 31.744 114.263 31.324 113.879 30.868C113.495 30.412 113.303 29.908 113.303 29.356C113.303 28.54 113.543 27.94 114.023 27.556C114.263 27.364 114.659 27.172 115.211 26.98C115.787 26.764 116.135 26.632 116.255 26.584C117.407 26.176 118.367 25.792 119.135 25.432C119.927 25.048 120.611 24.544 121.187 23.92C121.787 23.296 122.087 22.54 122.087 21.652C122.087 21.148 121.943 20.764 121.655 20.5C121.367 20.236 120.887 20.104 120.215 20.104C119.615 20.104 119.099 20.188 118.667 20.356C118.259 20.5 117.791 20.728 117.263 21.04C116.831 21.256 116.483 21.424 116.219 21.544C115.979 21.64 115.703 21.688 115.391 21.688C114.455 21.688 113.987 21.232 113.987 20.32C113.987 19.72 114.251 19.156 114.779 18.628C115.331 18.1 116.111 17.68 117.119 17.368C118.127 17.056 119.303 16.9 120.647 16.9C122.351 16.9 123.611 17.308 124.427 18.124C125.267 18.94 125.687 20.008 125.687 21.328C125.687 23.344 124.919 24.988 123.383 26.26C121.871 27.532 119.915 28.516 117.515 29.212C119.195 29.764 120.455 30.508 121.295 31.444C123.431 29.932 126.035 28.228 129.107 26.332C129.419 26.14 129.695 26.044 129.935 26.044ZM118.847 37.168C115.199 40.24 113.375 43.036 113.375 45.556C113.375 46.516 113.711 46.996 114.383 46.996C114.959 46.996 115.595 46.456 116.291 45.376C117.011 44.32 117.611 43.036 118.091 41.524C118.595 40.012 118.847 38.68 118.847 37.528V37.168ZM130.901 34.18C129.989 34.18 129.341 33.7 128.957 32.74C128.597 31.78 128.417 30.244 128.417 28.132C128.417 25.012 128.861 22.048 129.749 19.24C129.965 18.544 130.313 18.04 130.793 17.728C131.297 17.392 131.993 17.224 132.881 17.224C133.361 17.224 133.697 17.284 133.889 17.404C134.081 17.524 134.177 17.752 134.177 18.088C134.177 18.472 133.997 19.336 133.637 20.68C133.589 20.848 133.481 21.232 133.313 21.832C133.169 22.432 133.025 23.14 132.881 23.956C132.761 24.748 132.677 25.624 132.629 26.584C133.493 23.224 134.585 20.824 135.905 19.384C137.225 17.944 138.821 17.224 140.693 17.224C141.941 17.224 142.913 17.62 143.609 18.412C144.329 19.18 144.689 20.176 144.689 21.4C144.689 22.408 144.461 23.26 144.005 23.956C143.573 24.652 142.997 25 142.277 25C141.821 25 141.449 24.892 141.161 24.676C140.897 24.46 140.765 24.16 140.765 23.776C140.765 23.608 140.789 23.416 140.837 23.2C140.885 22.984 140.921 22.828 140.945 22.732C141.065 22.372 141.125 22.036 141.125 21.724C141.125 21.076 140.813 20.752 140.189 20.752C139.709 20.752 139.241 21.004 138.785 21.508C138.329 21.988 137.957 22.648 137.669 23.488C137.405 24.304 137.273 25.192 137.273 26.152C137.273 27.448 137.573 28.492 138.173 29.284C138.773 30.052 139.637 30.436 140.765 30.436C141.653 30.436 142.445 30.148 143.141 29.572C143.837 28.972 144.797 27.94 146.021 26.476C146.309 26.14 146.633 25.972 146.993 25.972C147.305 25.972 147.545 26.116 147.713 26.404C147.905 26.692 148.001 27.088 148.001 27.592C148.001 28.552 147.773 29.296 147.317 29.824C146.237 31.12 145.157 32.176 144.077 32.992C142.997 33.784 141.773 34.18 140.405 34.18C139.277 34.18 138.245 33.94 137.309 33.46C136.397 32.956 135.653 32.356 135.077 31.66C134.501 30.964 134.129 30.292 133.961 29.644C133.913 29.836 133.733 30.508 133.421 31.66C133.157 32.62 132.845 33.28 132.485 33.64C132.149 34 131.621 34.18 130.901 34.18ZM148.752 34.18C147.672 34.18 146.784 33.688 146.088 32.704C145.416 31.696 145.08 30.448 145.08 28.96C145.08 27.16 145.2 25.516 145.44 24.028C145.68 22.516 146.076 20.92 146.628 19.24C146.868 18.52 147.204 18.004 147.636 17.692C148.068 17.38 148.752 17.224 149.688 17.224C150.216 17.224 150.576 17.308 150.768 17.476C150.984 17.644 151.092 17.896 151.092 18.232C151.092 18.424 150.96 19.072 150.696 20.176C150.456 21.064 150.264 21.868 150.12 22.588C149.64 25.108 149.4 26.788 149.4 27.628C149.4 28.132 149.46 28.492 149.58 28.708C149.7 28.9 149.892 28.996 150.156 28.996C150.516 28.996 150.96 28.636 151.488 27.916C152.04 27.196 152.616 26.104 153.216 24.64C153.84 23.176 154.44 21.376 155.016 19.24C155.208 18.52 155.496 18.004 155.88 17.692C156.288 17.38 156.888 17.224 157.68 17.224C158.232 17.224 158.616 17.296 158.832 17.44C159.048 17.56 159.156 17.8 159.156 18.16C159.156 18.76 158.856 20.404 158.256 23.092C157.584 26.164 157.248 28.06 157.248 28.78C157.248 29.236 157.344 29.596 157.536 29.86C157.728 30.1 157.98 30.22 158.292 30.22C158.772 30.22 159.336 29.932 159.984 29.356C160.656 28.756 161.544 27.796 162.648 26.476C162.936 26.14 163.26 25.972 163.62 25.972C163.932 25.972 164.172 26.116 164.34 26.404C164.532 26.692 164.628 27.088 164.628 27.592C164.628 28.552 164.4 29.296 163.944 29.824C162.912 31.096 161.796 32.14 160.596 32.956C159.42 33.772 158.076 34.18 156.564 34.18C155.412 34.18 154.56 33.736 154.008 32.848C153.48 31.96 153.216 30.712 153.216 29.104C152.808 30.736 152.196 31.996 151.38 32.884C150.564 33.748 149.688 34.18 148.752 34.18ZM180.716 25.972C181.028 25.972 181.268 26.116 181.436 26.404C181.628 26.692 181.724 27.088 181.724 27.592C181.724 28.552 181.496 29.296 181.04 29.824C179.936 31.096 178.796 32.14 177.62 32.956C176.468 33.772 175.148 34.18 173.66 34.18C172.412 34.18 171.536 33.796 171.032 33.028C170.528 32.26 170.276 31.108 170.276 29.572C170.276 28.924 170.336 28.144 170.456 27.232C168.344 27.232 166.88 27.208 166.064 27.16C166.016 27.832 165.992 28.3 165.992 28.564V29.32C165.968 30.808 165.932 31.852 165.884 32.452C165.836 33.052 165.692 33.496 165.452 33.784C165.212 34.048 164.816 34.18 164.264 34.18C163.352 34.18 162.704 33.7 162.32 32.74C161.96 31.78 161.78 30.244 161.78 28.132C161.78 25.012 162.224 22.048 163.112 19.24C163.328 18.544 163.676 18.04 164.156 17.728C164.636 17.392 165.332 17.224 166.244 17.224C166.724 17.224 167.06 17.284 167.252 17.404C167.444 17.524 167.54 17.752 167.54 18.088C167.54 18.472 167.36 19.336 167 20.68C166.808 21.472 166.628 22.432 166.46 23.56H171.068C171.308 22.432 171.656 20.992 172.112 19.24C172.304 18.52 172.592 18.004 172.976 17.692C173.384 17.38 173.984 17.224 174.776 17.224C175.328 17.224 175.712 17.296 175.928 17.44C176.144 17.56 176.252 17.8 176.252 18.16C176.252 18.76 175.952 20.404 175.352 23.092C174.68 26.164 174.344 28.06 174.344 28.78C174.344 29.236 174.44 29.596 174.632 29.86C174.824 30.1 175.076 30.22 175.388 30.22C175.868 30.22 176.432 29.932 177.08 29.356C177.752 28.756 178.64 27.796 179.744 26.476C180.032 26.14 180.356 25.972 180.716 25.972Z" fill="#FCDB50"/>
</svg>
