<svg width="40" height="40" viewBox="0 0 40 40" fill="none" xmlns="http://www.w3.org/2000/svg">
<path d="M1.5625 24.6354C0.699531 24.6354 0 23.9359 0 23.0729V13.8541C0 6.21492 6.21492 0 13.8541 0H26.1459C29.4225 0 32.65 1.15258 35.2305 3.39672V1.5625C35.2305 0.699531 35.9301 0 36.793 0C37.656 0 38.3555 0.699531 38.3555 1.5625V7.70836C38.3555 8.55781 37.6677 9.26086 36.8112 9.26992C36.6813 9.27156 32.8914 9.27055 30.6472 9.27086C29.7842 9.27086 29.0847 8.57133 29.0847 7.70836C29.0847 6.84539 29.7842 6.14586 30.6472 6.14586H33.6029C31.6252 4.23922 28.9555 3.125 26.1459 3.125H13.8541C7.93805 3.125 3.125 7.93805 3.125 13.8541V23.0729C3.125 23.9359 2.42547 24.6354 1.5625 24.6354V24.6354ZM38.4375 15.3646C37.5745 15.3646 36.875 16.0641 36.875 16.9271V26.1459C36.875 32.062 32.062 36.875 26.1459 36.875H13.8541C11.0444 36.875 8.37477 35.7608 6.39703 33.8541H9.35266C10.2156 33.8541 10.9152 33.1546 10.9152 32.2916C10.9152 31.4287 10.2156 30.7291 9.35266 30.7291C2.95656 30.7301 3.16867 30.7242 3.03117 30.7396C2.23711 30.8289 1.6443 31.5061 1.6443 32.2916V38.4375C1.6443 39.3005 2.34383 40 3.2068 40C4.06977 40 4.7693 39.3005 4.7693 38.4375V36.6033C7.34984 38.8473 10.5777 40 13.8541 40H26.1458C33.785 40 40 33.7851 40 26.1459V16.9271C40 16.0641 39.3005 15.3646 38.4375 15.3646ZM25.99 25.732C25.9934 25.1351 25.9969 24.4797 26 23.7952H21.6047C20.4162 23.7952 19.6631 22.5175 20.2366 21.478C21.1796 19.7685 24.3102 14.1254 24.9978 13.2816C26.5117 11.424 28.928 12.3687 29.1095 14.5484C29.1447 14.9699 29.1456 17.8502 29.1374 20.6717C29.9687 20.7075 30.6316 21.3927 30.6316 22.2327C30.6316 23.077 29.9622 23.7648 29.1252 23.7942C29.1213 24.5934 29.1176 25.2765 29.1149 25.75C29.11 26.6098 28.4113 27.3035 27.5526 27.3035C26.6834 27.3035 25.985 26.5959 25.99 25.732V25.732ZM26.0118 20.6702C26.0149 19.5647 26.0167 18.4955 26.0164 17.5777C25.4995 18.4737 24.8895 19.5491 24.2613 20.6702H26.0118ZM14.592 19.2124C11.9107 23.0434 10.832 24.3187 10.4262 24.9096C9.60367 26.1073 10.1805 27.26 11.147 27.5821C11.7405 27.7801 15.5921 27.7076 17.7181 27.6809C18.5809 27.67 19.2717 26.9617 19.2609 26.0988C19.25 25.2359 18.5405 24.5471 17.6788 24.5561C16.6388 24.5691 15.5416 24.5784 14.581 24.5819C15.2177 23.724 16.0601 22.5649 17.1523 21.0043C17.9045 19.9297 18.7572 18.3794 18.7572 17.068C18.7572 14.5293 16.6917 12.4639 14.153 12.4639C11.9579 12.4639 10.058 14.0256 9.63531 16.1773C9.46898 17.0241 10.0206 17.8454 10.8673 18.0117C11.7147 18.1782 12.5354 17.6264 12.7017 16.7797C12.8373 16.0897 13.4476 15.5889 14.153 15.5889C14.9412 15.5889 15.5873 16.2085 15.6299 16.9862C15.6246 17.0011 15.6562 17.6916 14.592 19.2124V19.2124Z" fill="#FCDB50"/>
</svg>
