<svg id="Capa_1" enable-background="new 0 0 512 512" height="512" viewBox="0 0 512 512" width="512" xmlns="http://www.w3.org/2000/svg" xmlns:xlink="http://www.w3.org/1999/xlink"><linearGradient id="SVGID_1_" gradientUnits="userSpaceOnUse" x1="0" x2="512" y1="256" y2="256"><stop offset="0" stop-color="#80d8ff"/><stop offset="1" stop-color="#ea80fc"/></linearGradient><g><path d="m20 315.333c-11.046 0-20-8.954-20-20v-118c0-97.782 79.551-177.333 177.333-177.333h157.334c41.941 0 83.253 14.753 116.284 43.478v-23.478c0-11.046 8.954-20 20-20s20 8.954 20 20v78.667c0 10.873-8.805 19.872-19.768 19.988-1.662.021-50.173.008-78.899.012-11.046 0-20-8.954-20-20s8.954-20 20-20h37.833c-25.314-24.405-59.486-38.667-95.45-38.667h-157.334c-75.726 0-137.333 61.607-137.333 137.333v118c0 11.046-8.954 20-20 20zm472-118.666c-11.046 0-20 8.954-20 20v118c0 75.726-61.607 137.333-137.333 137.333h-157.334c-35.965 0-70.136-14.262-95.451-38.667h37.832c11.046 0 20-8.954 20-20s-8.954-20-20-20c-81.87.012-79.155-.063-80.915.134-10.164 1.143-17.752 9.811-17.752 19.866v78.667c0 11.046 8.954 20 20 20s20-8.954 20-20v-23.478c33.031 28.723 74.347 43.478 116.286 43.478h157.333c97.782 0 177.334-79.551 177.334-177.333v-118c0-11.046-8.954-20-20-20zm-159.328 132.703c.044-7.641.088-16.03.128-24.791h-56.26c-15.213 0-24.852-16.355-17.512-29.661 12.071-21.881 52.142-94.113 60.944-104.913 19.378-23.778 50.306-11.686 52.63 16.215.45 5.395.462 42.263.357 78.378 10.64.458 19.126 9.229 19.126 19.981 0 10.806-8.569 19.61-19.283 19.987-.049 10.229-.097 18.973-.131 25.034-.063 11.006-9.007 19.885-19.998 19.885-11.125 0-20.065-9.058-20.001-20.115zm.279-64.791c.04-14.151.063-27.836.059-39.584-6.616 11.468-14.424 25.234-22.465 39.584zm-146.174-18.66c-34.32 49.037-48.128 65.361-53.322 72.924-10.528 15.33-3.144 30.085 9.226 34.208 7.598 2.534 56.898 1.606 84.111 1.264 11.044-.139 19.886-9.205 19.747-20.25s-9.221-19.862-20.25-19.747c-13.312.167-27.356.285-39.652.33 8.15-10.981 18.932-25.817 32.913-45.793 9.627-13.755 20.542-33.599 20.542-50.384 0-32.496-26.438-58.933-58.933-58.933-28.098 0-52.417 19.99-57.827 47.532-2.129 10.839 4.932 21.351 15.77 23.48 10.846 2.131 21.351-4.932 23.48-15.77 1.735-8.832 9.547-15.242 18.577-15.242 10.088 0 18.358 7.931 18.904 17.885-.068.191.337 9.03-13.286 28.496z" fill="url(#SVGID_1_)"/></g></svg>