<svg width="48" height="47" viewBox="0 0 48 47" fill="none" xmlns="http://www.w3.org/2000/svg">
<path opacity="0.1" d="M17.2099 46.0831C13.6892 47.3803 10.5866 47.3011 7.90219 45.8453C5.32445 44.3501 3.3929 42.0347 2.10753 38.8991C0.407529 34.7521 -0.264013 29.8187 0.092894 24.0989C0.515029 18.2385 1.83188 13.2128 4.04348 9.02158L10.8172 10.717C8.25528 17.9479 7.86855 24.4937 9.65705 30.3546C10.4276 29.8377 10.9729 29.5204 11.2931 29.4024C13.6401 28.5377 15.9041 28.5185 18.085 29.3449C20.2657 30.1713 21.8123 31.6971 22.7245 33.9224C23.761 36.4511 23.7783 38.8895 22.7761 41.238C21.8392 43.446 19.9839 45.0611 17.2099 46.0831ZM41.6949 37.0615C38.1742 38.3587 35.0717 38.2795 32.3872 36.8236C29.8094 35.3285 27.8778 33.0131 26.5925 29.8776C24.8925 25.7306 24.221 20.7971 24.5779 15.0773C25.0414 9.31807 26.3583 4.29232 28.5285 0L35.3023 1.69547C32.7402 8.92634 32.3535 15.4722 34.142 21.3329C34.9126 20.8161 35.458 20.4988 35.778 20.3809C38.1252 19.5161 40.3892 19.4968 42.5699 20.3233C44.7508 21.1497 46.2972 22.6755 47.2094 24.9008C48.246 27.4294 48.2632 29.868 47.2611 32.2164C46.3243 34.4244 44.4688 36.0395 41.6949 37.0615Z" fill="#1139A2"/>
</svg>
