<svg width="31" height="30" viewBox="0 0 31 30" fill="none" xmlns="http://www.w3.org/2000/svg">
<path d="M15.635 0C7.36417 0 0.63501 6.72916 0.63501 15C0.63501 23.2708 7.36417 30 15.635 30C23.9059 30 30.635 23.2708 30.635 15C30.635 6.72916 23.9059 0 15.635 0ZM15.635 28.6957C8.08283 28.6957 1.93934 22.5522 1.93934 15C1.93934 7.44782 8.08283 1.30433 15.635 1.30433C23.1872 1.30433 29.3307 7.44782 29.3307 15C29.3307 22.5522 23.1872 28.6957 15.635 28.6957Z" fill="#FCDB50"/>
<path d="M15.635 14.3477C10.9602 14.3477 7.15674 18.1511 7.15674 22.8259C7.15674 23.186 7.44893 23.4781 7.80893 23.4781C8.16893 23.4781 8.46113 23.1859 8.46113 22.8259C8.46113 18.8698 11.6789 15.652 15.635 15.652C19.5911 15.652 22.8089 18.8698 22.8089 22.8259C22.8089 23.1859 23.1011 23.4781 23.4611 23.4781C23.8211 23.4781 24.1133 23.1859 24.1133 22.8259C24.1133 18.1511 20.3098 14.3477 15.635 14.3477Z" fill="#FCDB50"/>
<path d="M15.6348 3.91309C13.1174 3.91309 11.0696 5.9609 11.0696 8.47833C11.0696 10.9958 13.1174 13.0436 15.6348 13.0436C18.1523 13.0436 20.2001 10.9957 20.2001 8.47833C20.2001 5.96096 18.1523 3.91309 15.6348 3.91309ZM15.6348 11.7392C13.8375 11.7392 12.374 10.2757 12.374 8.47833C12.374 6.68096 13.8375 5.21748 15.6348 5.21748C17.4322 5.21748 18.8957 6.68096 18.8957 8.47833C18.8957 10.2757 17.4323 11.7392 15.6348 11.7392Z" fill="#FCDB50"/>
</svg>
