<svg width="19" height="30" viewBox="0 0 19 30" fill="none" xmlns="http://www.w3.org/2000/svg">
<path d="M18.0349 5H1.23503C0.903828 5 0.63501 5.28002 0.63501 5.62502C0.63501 5.97002 0.903828 6.25004 1.23503 6.25004H18.035C18.3662 6.25004 18.635 5.97002 18.635 5.62502C18.635 5.28002 18.3661 5 18.0349 5Z" fill="#FCDB50"/>
<path d="M9.63497 25C8.97376 25 8.435 25.5613 8.435 26.25C8.435 26.9388 8.97381 27.5 9.63497 27.5C10.2962 27.5 10.835 26.9387 10.835 26.25C10.835 25.5612 10.2962 25 9.63497 25Z" fill="#FCDB50"/>
<path d="M10.835 2.5H8.43504C8.10384 2.5 7.83502 2.78002 7.83502 3.12502C7.83502 3.47002 8.1039 3.74998 8.4351 3.74998H10.8351C11.1662 3.74998 11.4351 3.46996 11.4351 3.12496C11.4351 2.77996 11.1662 2.5 10.835 2.5Z" fill="#FCDB50"/>
<path d="M15.635 0H3.63498C1.98141 0 0.63501 1.4025 0.63501 3.12498V26.875C0.63501 28.5975 1.98141 30 3.63498 30H15.6349C17.2886 30 18.635 28.5975 18.635 26.875V3.12498C18.635 1.4025 17.2886 0 15.635 0ZM17.435 26.875C17.435 27.9088 16.6274 28.75 15.635 28.75H3.63498C2.64257 28.75 1.83499 27.9088 1.83499 26.875V3.12498C1.83499 2.09121 2.64257 1.24998 3.63498 1.24998H15.6349C16.6273 1.24998 17.4349 2.09121 17.4349 3.12498V26.875H17.435Z" fill="#FCDB50"/>
<path d="M18.0349 22.5H1.23503C0.903828 22.5 0.63501 22.78 0.63501 23.125C0.63501 23.47 0.903828 23.75 1.23503 23.75H18.035C18.3662 23.75 18.635 23.47 18.635 23.125C18.635 22.78 18.3661 22.5 18.0349 22.5Z" fill="#FCDB50"/>
</svg>
