<svg width="26" height="25" viewBox="0 0 26 25" fill="none" xmlns="http://www.w3.org/2000/svg">
<path d="M21.9738 3.65158C19.613 1.29684 16.4738 0 13.135 0C9.79623 0 6.65704 1.29684 4.2962 3.65158C1.93521 6.00647 0.63501 9.13727 0.63501 12.4677C0.63501 15.1004 1.44067 17.5996 2.96945 19.7234L0.651489 25L6.4483 23.0029C8.44751 24.2683 10.7514 24.9352 13.135 24.9352C16.4738 24.9352 19.613 23.6383 21.9738 21.2836C24.3348 18.9287 25.635 15.7977 25.635 12.4677C25.635 9.13757 24.3348 6.00647 21.9738 3.65158ZM20.5073 16.7505C19.3652 18.4349 19.3652 18.4349 19.3395 18.466C18.7043 19.2397 17.7123 19.6396 16.4744 19.6396C16.0136 19.6396 15.5187 19.5844 14.9954 19.4719C13.2363 19.095 11.316 18.11 9.58795 16.6985C7.86005 15.2866 6.51346 13.6029 5.79645 11.9569C5.01031 10.1518 5.05777 8.57239 5.93057 7.50961C5.9559 7.4791 5.9559 7.4791 7.44775 5.96329L8.04391 5.35751L11.3377 9.72565L10.175 11.1417C10.7415 11.9247 11.4109 12.76 12.2555 13.45C13.1001 14.1402 14.053 14.6301 14.9343 15.0299L16.1059 13.6035L20.9727 16.0643L20.5073 16.7505Z" fill="#555655"/>
</svg>
