<svg width="283" height="233" viewBox="0 0 283 233" fill="none" xmlns="http://www.w3.org/2000/svg">
<path d="M254.053 47.555L155.208 20.6864C154.332 20.4485 153.348 20.5622 152.534 20.9955L60.696 69.9036C59.6721 70.4488 59.0785 71.4131 59.1684 72.3847L62.8222 111.897L63.1212 117.171L69.1108 113.346C69.2501 114.851 69.2007 114.317 69.1108 113.346L166.554 187.965L147.892 183.532L145.327 187.219C143.458 187.403 169.375 193.497 169.832 193.445C170.289 193.392 170.739 193.255 171.146 193.038L262.984 144.13C264.008 143.585 264.601 142.621 264.511 141.649L256.002 49.6346C255.912 48.6623 255.155 47.8548 254.053 47.555ZM154.342 25.9331L245.851 50.8075L221.205 63.9329C221.034 63.85 220.854 63.776 220.659 63.723L129.771 39.018L154.342 25.9331ZM123.089 42.6838L214.466 67.5221L197.078 76.7824L105.739 51.9541L123.089 42.6838ZM216.972 72.0873L219.424 98.605L203.183 107.255L200.73 80.737L216.972 72.0873ZM258.212 140.771L172.301 186.523L171.448 177.302L164.832 105.757L164.312 100.131L184.805 89.2181C186.278 88.4333 186.78 86.8457 185.924 85.6714C185.069 84.4978 183.182 84.1817 181.708 84.9669L160.829 96.0863L151.987 93.6825C150.4 93.2506 148.61 93.9918 147.988 95.3365C147.366 96.6811 148.148 98.1208 149.734 98.552L158.16 100.843L158.665 106.305L165.464 179.822L166.554 187.965L69.1108 113.346L68.8566 109.915L65.6933 75.7078L136.106 94.8479C136.553 94.9695 137.016 94.9979 137.464 94.9461C138.608 94.8139 139.657 94.1596 140.104 93.1939C140.726 91.8492 139.945 90.4095 138.359 89.9783L69.3194 71.2115L98.7529 55.5366L194.547 81.5762C194.562 81.5902 194.579 81.6022 194.594 81.6158L197.404 112C197.484 112.872 198.103 113.619 199.043 113.978C199.565 114.178 200.145 114.243 200.714 114.177C201.17 114.124 201.62 113.988 202.028 113.77L224.196 101.965C225.22 101.42 225.813 100.456 225.723 99.4837L222.898 68.9319L250.223 54.3797L258.212 140.771Z" fill="#FCDB50" fill-opacity="0.33"/>
<path d="M144.729 123.917L82.5354 105.963C81.9841 105.804 81.3657 105.876 80.8554 106.157L23.262 137.956C22.6198 138.311 22.2493 138.942 22.3083 139.58L27.895 199.994C27.954 200.632 28.4322 201.165 29.1256 201.365L91.3196 219.318C91.5952 219.398 91.8878 219.42 92.1751 219.387C92.4624 219.353 92.7445 219.265 93 219.124L150.593 187.325C151.235 186.971 151.606 186.34 151.547 185.702L145.96 125.288C145.901 124.65 145.423 124.117 144.729 123.917ZM82.0045 109.404L139.583 126.025L124.127 134.559C124.019 134.504 123.906 134.455 123.783 134.419L66.5959 117.911L82.0045 109.404ZM62.4057 120.295L119.901 136.892L108.996 142.913L51.525 126.323L62.4057 120.295ZM121.488 139.896L123.098 157.307L112.912 162.931L111.302 145.52L121.488 139.896ZM147.586 185.105L93.7087 214.852L88.4634 158.13L101.315 151.035C102.239 150.524 102.55 149.484 102.009 148.711C101.469 147.938 100.282 147.724 99.3575 148.235L86.2639 155.464L80.7001 153.858C79.7019 153.569 78.579 154.05 78.1915 154.93C77.8039 155.811 78.2988 156.758 79.2967 157.046L84.5988 158.577L89.8441 215.299L31.6632 198.504L26.4178 141.782L70.7221 154.571C71.0033 154.652 71.2945 154.673 71.5761 154.64C72.2944 154.557 72.9523 154.131 73.2305 153.499C73.6181 152.618 73.1232 151.671 72.1253 151.383L28.6852 138.843L47.1435 128.651L107.418 146.051C107.428 146.06 107.438 146.068 107.448 146.077L109.293 166.027C109.345 166.599 109.736 167.091 110.328 167.33C110.656 167.463 111.021 167.507 111.379 167.466C111.665 167.433 111.948 167.345 112.203 167.203L126.105 159.528C126.747 159.173 127.118 158.542 127.059 157.904L125.204 137.845L142.34 128.383L147.586 185.105V185.105Z" fill="#FCDB50" fill-opacity="0.33"/>
</svg>
