<svg width="25" height="25" viewBox="0 0 25 25" fill="none" xmlns="http://www.w3.org/2000/svg">
<path d="M22.5 12.5C22.5 18 18 22.5 12.5 22.5C7 22.5 2.5 18 2.5 12.5C2.5 7 7 2.5 12.5 2.5C13.5 2.5 14.375 2.625 15.25 2.875L17.25 0.875C15.75 0.375 14.125 0 12.5 0C5.625 0 0 5.625 0 12.5C0 19.375 5.625 25 12.5 25C19.375 25 25 19.375 25 12.5H22.5Z" fill="#1A051D"/>
<path d="M5.30304 11.5662L7.05305 9.81616L10.928 13.6912L16.303 8.31616L21.678 2.94116L23.428 4.69116L17.178 10.9412L10.928 17.1912L8.11553 14.3787L5.30304 11.5662Z" fill="#FCDB50" style="mix-blend-mode:color"/>
</svg>
