<svg width="20" height="20" viewBox="0 0 20 20" fill="none" xmlns="http://www.w3.org/2000/svg">
<path d="M18 10C18 14.4 14.4 18 10 18C5.6 18 2 14.4 2 10C2 5.6 5.6 2 10 2C10.8 2 11.5 2.1 12.2 2.3L13.8 0.7C12.6 0.3 11.3 0 10 0C4.5 0 0 4.5 0 10C0 15.5 4.5 20 10 20C15.5 20 20 15.5 20 10H18Z" fill="#1A051D"/>
<path d="M4.24243 9.25303L5.64244 7.85303L8.74243 10.953L13.0424 6.65303L17.3424 2.35303L18.7424 3.75303L13.7424 8.75303L8.74243 13.753L6.49243 11.503L4.24243 9.25303Z" fill="#FCDB50" style="mix-blend-mode:color"/>
</svg>
