<svg width="33" height="34" viewBox="0 0 33 34" fill="none" xmlns="http://www.w3.org/2000/svg">
<path d="M29.7 17C29.7 24.48 23.76 30.6 16.5 30.6C9.24 30.6 3.3 24.48 3.3 17C3.3 9.52 9.24 3.4 16.5 3.4C17.82 3.4 18.975 3.57 20.13 3.91L22.7701 1.19C20.79 0.51 18.645 0 16.5 0C7.425 0 0 7.65 0 17C0 26.35 7.425 34 16.5 34C25.575 34 33 26.35 33 17H29.7Z" fill="#1A051D"/>
<path d="M7 15.73L9.31001 13.35L14.425 18.62L21.52 11.31L28.615 4L30.925 6.38L22.675 14.88L14.425 23.38L10.7125 19.555L7 15.73Z" fill="#FCDB50" style="mix-blend-mode:color"/>
</svg>
